PathFileType	4	(X/Y/Z)	C:/Users/beibeiliu/ov580/test_trc/capture2\sequence.18_training_dense_left.trc
DataRate	CameraRate	NumFrames	NumMarkers	Units	OrigDataRate	OrigDataStartFrame	OrigNumFrames
120	120	14	19	mm	120	150	398
Frame#	Time	ThumbCMC			ThumbMCP			ThumbIP			ThumbTip			IndexMCP			IndexPIP			IndexTip			MiddleMCP			MiddlePIP			MiddleTip			RingMCP			RingPIP			RingTip			PinkyMCP			PinkyPIP			PinkyTip			BackHand1			BackHand2			BackHand3	
		X0	Y0	Z0	X1	Y1	Z1	X2	Y2	Z2	X3	Y3	Z3	X4	Y4	Z4	X5	Y5	Z5	X6	Y6	Z6	X7	Y7	Z7	X8	Y8	Z8	X9	Y9	Z9	X10	Y10	Z10	X11	Y11	Z11	X12	Y12	Z12	X13	Y13	Z13	X14	Y14	Z14	X15	Y15	Z15	X16	Y16	Z16	X17	Y17	Z17	X18	Y18	Z18	
149	1.24167	-170.733	113.679	9.71933	-165.481	132.001	-13.4514	-163.428	136.677	-43.8464	-158.436	137.067	-67.2983	-147.889	111.107	-61.0173	-124.332	123.929	-55.5821	-134.834	121.106	-20.4098	-135.804	96.8275	-54.3697	-110.853	114.432	-41.5572	-132.231	109.473	-6.36113	-120.642	87.5292	-45.7773	-107.041	104.162	-22.7704	-127.674	95.2482	0.0892148	-112.889	72.8192	-34.3721	-101.844	91.4931	-14.3327	-127.551	83.6237	7.15754	-154.163	54.8262	-14.7731	-160.946	54.9685	19.2813	-180.563	82.6948	-0.852881	
150	1.25	-172.69	111.593	7.29601	-167.294	127.95	-17.6663	-168.155	135.652	-40.0886	-165.14	137.511	-64.8689	-156.937	106.737	-60.3792	-132	127.018	-56.9803	-135.534	117.945	-24.1576	-137.368	93.8153	-57.2418	-115.785	111.468	-41.2232	-130.141	108.974	-11.0559	-125.964	88.1149	-49.2885	-111.871	102.689	-26.4429	-133.115	94.2937	-3.33543	-114.815	71.2366	-39.0433	-108.092	91.0139	-16.7263	-131.366	83.4316	7.01967	-159.884	55.5357	-11.7634	-163.455	55.904	18.3686	-183.568	80.3761	0.275423	
151	1.25833	-178.215	113.592	6.55122	-170.627	122.878	-16.9908	-174.378	132.306	-45.1232	-169.819	130.126	-66.7459	-165.046	103.866	-60.9546	-139.232	122.353	-60.9453	-142.03	116.268	-26.5891	-146.027	89.3892	-57.9244	-121.695	110.407	-48.2205	-135.915	107.439	-12.7636	-129.44	84.0618	-52.2991	-117.17	101.54	-31.2292	-133.743	94.8401	-5.97704	-122.395	72.2038	-42.0496	-110.855	89.6354	-21.737	-130.019	83.5093	2.34149	-162.29	50.4044	-15.4081	-164.532	52.2037	17.9611	-182.953	75.7932	-2.25463	
152	1.26667	-180.127	110.11	7.23308	-175.153	123.37	-13.7816	-179.923	129.872	-41.4279	-178.789	129.042	-64.9139	-171.127	103.525	-62.3609	-147.471	121.879	-61.4161	-146.488	115.906	-29.2777	-152.29	87.4363	-61.0622	-129.998	109.512	-52.9313	-137.523	105.447	-16.7804	-139.19	78.9937	-54.0023	-121.033	98.0652	-38.2691	-139.489	90.8083	-7.85902	-125.133	65.9983	-45.0885	-118.164	88.9237	-27.4767	-136.082	82.2522	-2.95993	-165.766	49.8786	-11.8864	-169.941	52.4746	18.8316	-186.665	74.022	2.017	
153	1.275	-181.669	106.538	8.26609	-181.408	122.306	-15.8003	-184.059	123.317	-42.2388	-184.833	125.528	-63.7228	-177.337	95.5969	-60.5743	-152.5	118.28	-61.8211	-153.849	109.532	-28.8797	-160.051	87.2717	-64.2528	-135.368	104.376	-55.9908	-143.962	105.336	-19.7407	-143.698	71.8043	-55.3526	-125.922	96.14	-39.7865	-140.953	92.6227	-12.5623	-134.93	64.4629	-46.1718	-121.377	84.9594	-28.8423	-138.42	79.6486	-4.81891	-168.855	46.269	-14.9811	-170.37	48.902	21.3106	-190.844	71.5939	4.63999	
154	1.28333	-185.012	104.088	8.15051	-186.687	119.968	-18.1648	-192.348	123.006	-46.0074	-191.192	118.483	-66.238	-184.698	96.8984	-64.4431	-158.911	110.855	-64.6038	-157.3	107.696	-32.8214	-165.93	80.1381	-63.3531	-143.699	102.824	-58.6509	-149.93	101.607	-20.2141	-154.539	71.5647	-56.2723	-131.59	91.9419	-42.1	-145.464	88.0733	-13.5493	-139.582	58.5523	-48.0922	-128.964	84.2253	-34.4068	-141.042	77.4999	-8.30239	-175.553	46.0139	-12.1136	-172.24	47.777	22.1315	-194.444	71.881	2.36654	
155	1.29167	-188.426	103.5	10.8639	-188.806	112.34	-18.9212	-197.513	119.485	-43.4841	-202.518	117.881	-68.8548	-194.814	93.9695	-60.6731	-168.843	112.294	-66.8104	-164.222	107.668	-33.2385	-175.783	78.2616	-64.0572	-151.027	101.383	-57.5945	-153.151	97.943	-23.6404	-161.632	69.8061	-58.656	-137.911	88.6387	-48.5814	-150.912	86.8392	-16.1226	-147.347	60.0712	-51.2467	-132.769	79.2752	-36.7055	-146.102	76.2384	-8.5962	-182.101	43.8998	-11.9537	-178.56	46.3061	22.6204	-198.055	66.4957	6.71081	
156	1.3	-194.253	101.108	8.05725	-195.115	109.982	-17.0459	-205.982	116.816	-43.781	-210.177	118.176	-65.4226	-198.85	87.665	-63.4769	-175.925	104.776	-68.886	-169.877	104.097	-36.2398	-181.307	74.6416	-66.4177	-157.79	95.2192	-61.8927	-159.58	92.9535	-23.7441	-165.346	64.6856	-62.0023	-149.04	88.32	-49.6017	-157.63	82.9834	-17.2951	-158.256	53.9745	-50.0413	-141.598	76.184	-42.0562	-149.753	72.644	-9.14373	-186.426	40.9854	-13.1439	-182.695	45.2493	19.5123	-202.708	64.4566	3.09593	
157	1.30833	-199.585	101.371	11.4641	-199.575	110.37	-14.4258	-212.088	114.61	-42.7845	-216.127	110.318	-65.4241	-210.939	87.5949	-60.7462	-186.887	102.454	-70.2617	-177.605	103.875	-36.2815	-191.674	69.1456	-63.2864	-166.994	93.4976	-62.8943	-167.81	89.1764	-23.8749	-173.662	59.7889	-60.9166	-156.32	83.0631	-52.0272	-164.217	78.8757	-18.5472	-163.855	50.7642	-53.673	-148.504	73.0318	-44.1651	-160.721	71.4549	-14.5825	-191.756	36.0884	-13.2584	-185.887	40.4597	19.8367	-210.001	66.3707	7.52774	
158	1.31667	-203.418	96.599	8.93447	-208.478	108.154	-17.5748	-216.569	109.462	-39.7304	-224.553	109.353	-62.1234	-217.488	83.0346	-61.5084	-193.856	99.6989	-69.5897	-183.209	99.064	-38.052	-199.955	70.6879	-65.9439	-176.457	88.7922	-66.1543	-172.282	87.5462	-28.3267	-181.949	59.0908	-63.6575	-164.307	80.813	-53.7976	-167.535	77.3918	-21.1399	-171.025	47.3843	-55.2216	-153.161	67.2251	-45.7522	-166.132	65.3962	-13.9869	-197.517	36.1126	-8.6701	-190.436	37.7853	21.4645	-215.931	63.0334	7.90861	
159	1.325	-208.198	95.8708	11.9141	-216.21	104.867	-17.4654	-228.281	105.835	-41.4206	-235.595	104.916	-62.4734	-228.491	81.0892	-55.7321	-202.377	98.3304	-67.9776	-191.279	94.6708	-39.4675	-208.915	62.8442	-61.9332	-182.81	84.0881	-64.439	-181.635	85.6466	-27.5134	-190.893	53.1738	-60.6121	-173.746	78.5273	-55.0705	-178.146	75.3674	-22.0955	-181.161	44.6828	-53.8572	-165.114	66.909	-47.1398	-172.079	68.1255	-16.8169	-203.567	31.3777	-6.6925	-195.611	35.1399	21.4638	-219.239	57.7169	8.61165	
160	1.33333	-211.903	92.7436	13.8643	-220.745	101.953	-13.6166	-235.083	105.865	-38.1531	-245.354	102.178	-62.3635	-234.029	74.78	-56.6103	-212.821	93.6415	-68.4631	-199.32	93.7976	-34.7748	-217.089	62.8784	-61.918	-193.121	82.8762	-63.8442	-189.052	82.133	-25.4238	-201.076	50.3698	-57.7607	-177.082	74.8275	-53.3824	-181.983	73.1195	-23.0994	-185.983	39.8827	-52.1741	-169.289	66.0232	-45.1372	-181.753	64.6535	-15.0779	-211.541	32.0228	-7.71147	-199.789	38.4923	23.6302	-225.297	58.0894	14.1162	
161	1.34167	-216.289	91.2521	15.0515	-225.877	103.904	-12.3201	-238.758	103.107	-36.8496	-248.841	100.315	-59.2956	-239.332	76.1954	-52.0431	-218.435	93.3632	-66.7295	-202.73	90.7062	-33.2656	-221.082	58.3672	-56.823	-196.509	78.8072	-63.8623	-190.363	81.1181	-26.9184	-203.578	48.7806	-59.359	-185.852	73.0394	-55.5906	-186.695	70.2886	-20.492	-191.073	37.4185	-49.8059	-176.324	62.7858	-48.9734	-179.158	61.87	-15.9295	-212.448	29.9605	-6.23213	-200.042	33.3033	22.824	-225.948	53.6517	13.1632	
162	1.35	-210.773	91.5884	15.3281	-217.542	104.907	-12.101	-227.395	109.895	-34.9451	-234.397	103.938	-57.1525	-231.278	81.2367	-53.088	-201.659	93.4766	-62.116	-194.121	90.6058	-28.894	-215.039	62.5963	-59.7609	-188.27	82.4865	-60.1843	-184.547	81.9176	-24.7522	-199.795	52.9498	-58.4787	-177.114	68.8545	-53.0523	-179.438	68.9889	-19.9736	-189.2	37.4203	-51.5709	-167.552	57.938	-46.5171	-176.806	59.0933	-12.1797	-212.56	31.0766	-3.52594	-203.495	34.1209	24.1329	-225.939	61.1641	16.1966	
